<svg width="512" height="512" xmlns="http://www.w3.org/2000/svg">

 <g>
  <title>background</title>
  <rect fill="none" id="canvas_background" height="602" width="802" y="-1" x="-1"/>
 </g>
 <g>
  <title>Layer 1</title>
  <path id="svg_1" fill="#da1526" d="m15.923,344.043c36.171,97.48401 130.006,166.957 240.077,166.957s203.90601,-69.47299 240.077,-166.957l-240.077,-22.26001l-240.077,22.26001z"/>
  <path fill="#ffffff" id="svg_2" d="m256,-1c-110.071,0 -203.90601,69.472 -240.077,166.957l240.077,22.25999l240.077,-22.261c-36.17102,-97.48399 -130.00598,-166.95598 -240.077,-166.95598l0,-0.00001z"/>
  <path id="svg_3" fill="#088ce8" d="m15.923,166.957c-10.29,27.733 -15.923,57.729 -15.923,89.043s5.633,61.31 15.923,89.043l480.155,0c10.29001,-27.733 15.922,-57.729 15.922,-89.043s-5.63199,-61.31 -15.923,-89.043l-480.154,0z"/>
  <g id="svg_4"/>
  <g id="svg_5"/>
  <g id="svg_6"/>
  <g id="svg_7"/>
  <g id="svg_8"/>
  <g id="svg_9"/>
  <g id="svg_10"/>
  <g id="svg_11"/>
  <g id="svg_12"/>
  <g id="svg_13"/>
  <g id="svg_14"/>
  <g id="svg_15"/>
  <g id="svg_16"/>
  <g id="svg_17"/>
  <g id="svg_18"/>
 </g>
</svg>