<?xml version="1.0" encoding="UTF-8"?>
<svg xmlns="http://www.w3.org/2000/svg" xmlns:xlink="http://www.w3.org/1999/xlink" width="60px" height="60px" viewBox="0 0 60 60" version="1.1">
<g id="surface1">
<path style=" stroke:none;fill-rule:nonzero;fill:rgb(6.27451%,9.803922%,23.529412%);fill-opacity:1;" d="M 11.039062 -0.015625 C 11.210938 -0.015625 11.378906 -0.015625 11.546875 -0.015625 C 12.011719 -0.0195312 12.476562 -0.0195312 12.941406 -0.0195312 C 13.441406 -0.0195312 13.941406 -0.0195312 14.445312 -0.0195312 C 15.539062 -0.0234375 16.632812 -0.0234375 17.730469 -0.0234375 C 18.414062 -0.0234375 19.097656 -0.0234375 19.785156 -0.0234375 C 21.683594 -0.0273438 23.578125 -0.0273438 25.476562 -0.0273438 C 25.660156 -0.0273438 25.660156 -0.0273438 25.84375 -0.0273438 C 25.96875 -0.0273438 26.089844 -0.0273438 26.214844 -0.0273438 C 26.460938 -0.0273438 26.707031 -0.0273438 26.953125 -0.0273438 C 27.136719 -0.0273438 27.136719 -0.0273438 27.324219 -0.0273438 C 29.304688 -0.0273438 31.28125 -0.03125 33.261719 -0.0351562 C 35.296875 -0.0351562 37.332031 -0.0390625 39.367188 -0.0390625 C 40.507812 -0.0390625 41.648438 -0.0390625 42.792969 -0.0390625 C 43.761719 -0.0429688 44.734375 -0.0429688 45.707031 -0.0429688 C 46.203125 -0.0429688 46.699219 -0.0429688 47.195312 -0.0429688 C 51.007812 -0.0546875 54.441406 0.207031 57.371094 2.945312 C 59.476562 5.109375 60.019531 8.140625 60.015625 11.039062 C 60.015625 11.210938 60.015625 11.378906 60.015625 11.546875 C 60.019531 12.011719 60.019531 12.476562 60.019531 12.941406 C 60.019531 13.441406 60.019531 13.941406 60.019531 14.445312 C 60.023438 15.539062 60.023438 16.632812 60.023438 17.730469 C 60.023438 18.414062 60.023438 19.097656 60.023438 19.785156 C 60.027344 21.683594 60.027344 23.578125 60.027344 25.476562 C 60.027344 25.597656 60.027344 25.71875 60.027344 25.84375 C 60.027344 25.96875 60.027344 26.089844 60.027344 26.214844 C 60.027344 26.460938 60.027344 26.707031 60.027344 26.953125 C 60.027344 27.074219 60.027344 27.199219 60.027344 27.324219 C 60.027344 29.304688 60.03125 31.28125 60.035156 33.261719 C 60.035156 35.296875 60.039062 37.332031 60.039062 39.367188 C 60.039062 40.507812 60.039062 41.648438 60.039062 42.792969 C 60.042969 43.761719 60.042969 44.734375 60.042969 45.707031 C 60.042969 46.203125 60.042969 46.699219 60.042969 47.195312 C 60.054688 51.007812 59.792969 54.441406 57.054688 57.371094 C 54.890625 59.476562 51.859375 60.019531 48.960938 60.015625 C 48.789062 60.015625 48.621094 60.015625 48.453125 60.015625 C 47.988281 60.019531 47.523438 60.019531 47.058594 60.019531 C 46.558594 60.019531 46.058594 60.019531 45.554688 60.019531 C 44.460938 60.023438 43.367188 60.023438 42.269531 60.023438 C 41.585938 60.023438 40.902344 60.023438 40.214844 60.023438 C 38.316406 60.027344 36.421875 60.027344 34.523438 60.027344 C 34.339844 60.027344 34.339844 60.027344 34.15625 60.027344 C 34.03125 60.027344 33.910156 60.027344 33.785156 60.027344 C 33.539062 60.027344 33.292969 60.027344 33.046875 60.027344 C 32.863281 60.027344 32.863281 60.027344 32.675781 60.027344 C 30.695312 60.027344 28.71875 60.03125 26.738281 60.035156 C 24.703125 60.035156 22.667969 60.039062 20.632812 60.039062 C 19.492188 60.039062 18.351562 60.039062 17.207031 60.039062 C 16.238281 60.042969 15.265625 60.042969 14.292969 60.042969 C 13.796875 60.042969 13.300781 60.042969 12.804688 60.042969 C 8.992188 60.054688 5.558594 59.792969 2.628906 57.054688 C 0.523438 54.890625 -0.0195312 51.859375 -0.015625 48.960938 C -0.015625 48.789062 -0.015625 48.621094 -0.015625 48.453125 C -0.0195312 47.988281 -0.0195312 47.523438 -0.0195312 47.058594 C -0.0195312 46.558594 -0.0195312 46.058594 -0.0195312 45.554688 C -0.0234375 44.460938 -0.0234375 43.367188 -0.0234375 42.269531 C -0.0234375 41.585938 -0.0234375 40.902344 -0.0234375 40.214844 C -0.0273438 38.316406 -0.0273438 36.421875 -0.0273438 34.523438 C -0.0273438 34.339844 -0.0273438 34.339844 -0.0273438 34.15625 C -0.0273438 34.03125 -0.0273438 33.910156 -0.0273438 33.785156 C -0.0273438 33.539062 -0.0273438 33.292969 -0.0273438 33.046875 C -0.0273438 32.925781 -0.0273438 32.800781 -0.0273438 32.675781 C -0.0273438 30.695312 -0.03125 28.71875 -0.0351562 26.738281 C -0.0351562 24.703125 -0.0390625 22.667969 -0.0390625 20.632812 C -0.0390625 19.492188 -0.0390625 18.351562 -0.0390625 17.207031 C -0.0429688 16.238281 -0.0429688 15.265625 -0.0429688 14.292969 C -0.0429688 13.796875 -0.0429688 13.300781 -0.0429688 12.804688 C -0.0546875 8.992188 0.207031 5.558594 2.945312 2.628906 C 5.109375 0.523438 8.140625 -0.0195312 11.039062 -0.015625 Z M 11.039062 -0.015625 "/>
<path style=" stroke:none;fill-rule:nonzero;fill:rgb(0%,43.529412%,72.941178%);fill-opacity:1;" d="M 27.890625 21.09375 C 29.910156 21.074219 29.910156 21.074219 30.785156 21.070312 C 31.378906 21.066406 31.972656 21.066406 32.5625 21.058594 C 33.042969 21.054688 33.519531 21.050781 34 21.050781 C 34.179688 21.046875 34.363281 21.046875 34.542969 21.042969 C 37.519531 21.003906 40.285156 21.882812 42.453125 23.988281 C 44.472656 26.042969 45.292969 28.683594 45.28125 31.527344 C 45.28125 31.703125 45.28125 31.878906 45.28125 32.058594 C 45.28125 32.425781 45.28125 32.796875 45.28125 33.164062 C 45.277344 33.632812 45.28125 34.101562 45.28125 34.566406 C 45.28125 34.933594 45.28125 35.296875 45.28125 35.664062 C 45.28125 35.835938 45.28125 36.007812 45.28125 36.179688 C 45.292969 39.042969 44.535156 41.65625 42.5 43.746094 C 42.398438 43.851562 42.292969 43.957031 42.1875 44.0625 C 42.109375 44.140625 42.035156 44.21875 41.953125 44.300781 C 40.101562 46.054688 37.582031 46.679688 35.105469 46.667969 C 34.925781 46.667969 34.742188 46.667969 34.5625 46.667969 C 34.070312 46.667969 33.582031 46.667969 33.09375 46.664062 C 32.578125 46.664062 32.066406 46.664062 31.554688 46.664062 C 30.582031 46.660156 29.613281 46.660156 28.644531 46.65625 C 27.332031 46.65625 26.019531 46.652344 24.710938 46.652344 C 22.644531 46.648438 20.582031 46.644531 18.515625 46.640625 C 18.515625 40.839844 18.515625 35.039062 18.515625 29.0625 C 21.609375 29.0625 24.703125 29.0625 27.890625 29.0625 C 27.890625 26.433594 27.890625 23.804688 27.890625 21.09375 Z M 27.890625 21.09375 "/>
<path style=" stroke:none;fill-rule:nonzero;fill:rgb(0%,54.11765%,88.235295%);fill-opacity:1;" d="M 18.515625 29.0625 C 21.609375 29.0625 24.703125 29.0625 27.890625 29.0625 C 27.890625 34.863281 27.890625 40.664062 27.890625 46.640625 C 24.796875 46.640625 21.703125 46.640625 18.515625 46.640625 C 18.515625 40.839844 18.515625 35.039062 18.515625 29.0625 Z M 18.515625 29.0625 "/>
<path style=" stroke:none;fill-rule:nonzero;fill:rgb(0%,59.607846%,94.117647%);fill-opacity:1;" d="M 27.890625 21.09375 C 29.910156 21.074219 29.910156 21.074219 30.785156 21.070312 C 31.378906 21.066406 31.972656 21.066406 32.5625 21.058594 C 33.042969 21.054688 33.519531 21.050781 34 21.050781 C 34.179688 21.046875 34.363281 21.046875 34.542969 21.042969 C 37.519531 21.003906 40.285156 21.882812 42.453125 23.988281 C 44.382812 25.953125 45.234375 28.4375 45.234375 31.171875 C 42.566406 31.171875 39.898438 31.171875 37.148438 31.171875 C 36.992188 30.863281 36.839844 30.554688 36.679688 30.234375 C 36.5 30.003906 36.5 30.003906 36.296875 29.847656 C 36.238281 29.792969 36.175781 29.742188 36.113281 29.6875 C 35.199219 29.128906 34.339844 29.125 33.292969 29.121094 C 33.15625 29.117188 33.019531 29.117188 32.875 29.113281 C 32.367188 29.105469 31.855469 29.101562 31.347656 29.097656 C 30.207031 29.085938 29.066406 29.074219 27.890625 29.0625 C 27.890625 26.433594 27.890625 23.804688 27.890625 21.09375 Z M 27.890625 21.09375 "/>
<path style=" stroke:none;fill-rule:nonzero;fill:rgb(0%,63.137257%,96.862745%);fill-opacity:1;" d="M 18.515625 11.484375 C 21.609375 11.484375 24.703125 11.484375 27.890625 11.484375 C 27.890625 14.617188 27.890625 17.75 27.890625 20.976562 C 24.796875 20.976562 21.703125 20.976562 18.515625 20.976562 C 18.515625 17.84375 18.515625 14.710938 18.515625 11.484375 Z M 18.515625 11.484375 "/>
<path style=" stroke:none;fill-rule:nonzero;fill:rgb(6.27451%,9.803922%,23.529412%);fill-opacity:1;" d="M 27.890625 29.0625 C 29.597656 29.046875 29.597656 29.046875 31.339844 29.03125 C 31.699219 29.027344 32.054688 29.023438 32.421875 29.019531 C 32.710938 29.019531 32.996094 29.019531 33.28125 29.015625 C 33.425781 29.015625 33.574219 29.011719 33.722656 29.007812 C 34.886719 29.007812 35.75 29.238281 36.621094 30.035156 C 37.257812 30.761719 37.402344 31.582031 37.40625 32.519531 C 37.40625 32.617188 37.40625 32.71875 37.410156 32.820312 C 37.410156 33.027344 37.410156 33.234375 37.410156 33.445312 C 37.410156 33.761719 37.414062 34.078125 37.417969 34.394531 C 37.421875 34.597656 37.421875 34.800781 37.421875 35.003906 C 37.421875 35.097656 37.425781 35.191406 37.425781 35.285156 C 37.421875 36.234375 37.199219 37.085938 36.535156 37.785156 C 35.617188 38.597656 34.746094 38.636719 33.554688 38.613281 C 33.410156 38.609375 33.265625 38.609375 33.117188 38.609375 C 32.585938 38.605469 32.050781 38.597656 31.515625 38.589844 C 29.722656 38.574219 29.722656 38.574219 27.890625 38.554688 C 27.890625 35.421875 27.890625 32.289062 27.890625 29.0625 Z M 27.890625 29.0625 "/>
<path style=" stroke:none;fill-rule:nonzero;fill:rgb(0%,36.862746%,62.7451%);fill-opacity:1;" d="M 37.382812 38.4375 C 39.933594 38.4375 42.488281 38.4375 45.117188 38.4375 C 44.699219 40.730469 43.820312 42.429688 42.1875 44.0625 C 42.109375 44.140625 42.035156 44.21875 41.953125 44.300781 C 40.683594 45.503906 38.871094 46.316406 37.148438 46.523438 C 37.148438 46.445312 37.148438 46.367188 37.148438 46.289062 C 37.226562 46.289062 37.304688 46.289062 37.382812 46.289062 C 37.382812 43.699219 37.382812 41.105469 37.382812 38.4375 Z M 37.382812 38.4375 "/>
<path style=" stroke:none;fill-rule:nonzero;fill:rgb(0.784314%,67.058825%,97.254902%);fill-opacity:1;" d="M 39.609375 13.59375 C 40.886719 13.59375 42.160156 13.59375 43.476562 13.59375 C 43.476562 14.871094 43.476562 16.144531 43.476562 17.460938 C 42.199219 17.460938 40.925781 17.460938 39.609375 17.460938 C 39.609375 16.183594 39.609375 14.910156 39.609375 13.59375 Z M 39.609375 13.59375 "/>
<path style=" stroke:none;fill-rule:nonzero;fill:rgb(0.392157%,63.921571%,97.254902%);fill-opacity:1;" d="M 43.59375 19.6875 C 44.5625 19.6875 45.527344 19.6875 46.523438 19.6875 C 46.523438 20.691406 46.523438 21.699219 46.523438 22.734375 C 45.554688 22.734375 44.589844 22.734375 43.59375 22.734375 C 43.59375 21.730469 43.59375 20.722656 43.59375 19.6875 Z M 43.59375 19.6875 "/>
</g>
</svg>
