<?xml version="1.0" standalone="no"?>
<!DOCTYPE svg PUBLIC "-//W3C//DTD SVG 20010904//EN"
 "http://www.w3.org/TR/2001/REC-SVG-20010904/DTD/svg10.dtd">
<svg version="1.0" xmlns="http://www.w3.org/2000/svg"
 width="518.000000pt" height="564.000000pt" viewBox="0 0 518.000000 564.000000"
 preserveAspectRatio="xMidYMid meet">

<g transform="translate(0.000000,564.000000) scale(0.100000,-0.100000)"
fill="#000000" stroke="none">
<path d="M3020 4731 l-195 -6 -47 -30 c-58 -37 -104 -97 -116 -151 -5 -23 -5
-91 0 -163 8 -109 7 -126 -8 -142 -15 -16 -16 -36 -10 -166 6 -123 10 -153 27
-175 23 -33 25 -71 3 -89 -14 -12 -15 -33 -9 -179 5 -140 9 -169 26 -192 21
-30 25 -80 49 -643 18 -407 33 -546 63 -597 84 -144 220 -205 431 -194 56 3
249 8 429 11 252 4 335 9 355 19 43 22 131 121 152 171 14 32 20 69 20 118 0
40 -20 531 -45 1092 -45 1019 -46 1020 -72 1093 -32 92 -84 158 -154 197 l-54
30 -325 1 c-179 0 -413 -2 -520 -5z m843 -105 c43 -17 84 -67 96 -114 11 -47
44 -670 43 -822 0 -96 18 -511 54 -1225 8 -159 -2 -192 -71 -225 -41 -20 -54
-20 -533 -18 l-491 3 -36 35 c-19 19 -40 50 -45 70 -6 19 -17 181 -25 360 -16
344 -45 917 -74 1465 -9 182 -14 345 -10 363 8 37 43 80 75 92 11 5 180 11
375 15 195 4 356 9 358 11 12 11 255 3 284 -10z"/>
<path d="M3293 4593 c-151 -4 -152 -4 -173 -30 -26 -33 -20 -68 17 -102 26
-23 27 -23 212 -16 200 7 225 14 237 60 12 50 -54 100 -121 93 -11 -1 -88 -4
-172 -5z"/>
<path d="M2149 4212 c-90 -47 -139 -137 -139 -257 1 -142 94 -272 224 -310
138 -41 271 56 299 218 31 184 -112 373 -284 376 -33 1 -63 -7 -100 -27z m192
-71 c60 -61 26 -153 -50 -136 -38 8 -81 58 -81 93 0 14 10 36 22 49 30 32 72
30 109 -6z"/>
<path d="M984 3850 c-46 -14 -127 -106 -155 -175 -19 -50 -24 -78 -24 -165 0
-97 2 -109 29 -157 39 -70 87 -103 152 -103 81 0 147 53 198 160 29 60 31 73
31 170 0 95 -3 110 -28 163 -44 89 -123 131 -203 107z m131 -105 c48 -48 24
-155 -34 -155 -30 0 -61 47 -61 92 0 39 34 88 60 88 6 0 22 -11 35 -25z"/>
<path d="M1534 3671 c-22 -14 -46 -51 -92 -144 -71 -141 -115 -191 -221 -247
-72 -39 -101 -76 -101 -133 0 -60 64 -107 146 -107 12 0 28 -7 35 -17 8 -9 32
-24 54 -34 140 -62 353 -15 700 155 247 121 298 170 299 283 1 56 -17 89 -68
127 -30 23 -111 27 -251 12 -80 -9 -108 -1 -280 78 -113 52 -169 59 -221 27z
m167 -137 c19 -15 58 -37 87 -51 76 -36 95 -84 46 -122 -25 -19 -27 -20 -67
-4 -150 60 -217 133 -170 185 23 25 63 22 104 -8z"/>
</g>
</svg>
